<mxfile host="app.diagrams.net" modified="2024-02-22T23:25:27.403Z" agent="Mozilla/5.0 (Windows NT 10.0; Win64; x64; rv:121.0) Gecko/20100101 Firefox/121.0" etag="YQDa8ASt_TpmuZFkurE9" version="23.1.6" type="github">
  <diagram name="Page-1" id="sC8i6azxUqFukbBV1pg0">
    <mxGraphModel dx="1434" dy="754" grid="1" gridSize="10" guides="1" tooltips="1" connect="1" arrows="1" fold="1" page="1" pageScale="1" pageWidth="850" pageHeight="1100" math="0" shadow="0">
      <root>
        <mxCell id="0" />
        <mxCell id="1" parent="0" />
        <mxCell id="nKTFBPFfTqCSFHR7X2-T-12" style="edgeStyle=orthogonalEdgeStyle;rounded=0;orthogonalLoop=1;jettySize=auto;html=1;shape=link;fillColor=#f5f5f5;strokeColor=#666666;" edge="1" parent="1" source="nKTFBPFfTqCSFHR7X2-T-1" target="nKTFBPFfTqCSFHR7X2-T-2">
          <mxGeometry relative="1" as="geometry" />
        </mxCell>
        <mxCell id="nKTFBPFfTqCSFHR7X2-T-13" value="1.Send Events" style="edgeLabel;html=1;align=center;verticalAlign=middle;resizable=0;points=[];" vertex="1" connectable="0" parent="nKTFBPFfTqCSFHR7X2-T-12">
          <mxGeometry x="0.1636" relative="1" as="geometry">
            <mxPoint as="offset" />
          </mxGeometry>
        </mxCell>
        <mxCell id="nKTFBPFfTqCSFHR7X2-T-1" value="&lt;div&gt;Windows 10&lt;/div&gt;&lt;div&gt;Wazuh Agent&lt;br&gt;&lt;/div&gt;" style="fontColor=#0066CC;verticalAlign=top;verticalLabelPosition=bottom;labelPosition=center;align=center;html=1;outlineConnect=0;fillColor=#CCCCCC;strokeColor=#6881B3;gradientColor=none;gradientDirection=north;strokeWidth=2;shape=mxgraph.networks.pc;" vertex="1" parent="1">
          <mxGeometry x="375" y="490" width="100" height="70" as="geometry" />
        </mxCell>
        <mxCell id="nKTFBPFfTqCSFHR7X2-T-14" style="edgeStyle=orthogonalEdgeStyle;rounded=0;orthogonalLoop=1;jettySize=auto;html=1;shape=link;fillColor=#f5f5f5;strokeColor=#666666;" edge="1" parent="1" source="nKTFBPFfTqCSFHR7X2-T-2" target="nKTFBPFfTqCSFHR7X2-T-3">
          <mxGeometry relative="1" as="geometry" />
        </mxCell>
        <mxCell id="nKTFBPFfTqCSFHR7X2-T-2" value="Router" style="image;html=1;image=img/lib/clip_art/networking/Wireless_Router_128x128.png" vertex="1" parent="1">
          <mxGeometry x="385" y="300" width="80" height="80" as="geometry" />
        </mxCell>
        <mxCell id="nKTFBPFfTqCSFHR7X2-T-16" style="edgeStyle=orthogonalEdgeStyle;rounded=0;orthogonalLoop=1;jettySize=auto;html=1;shape=link;strokeColor=#666666;" edge="1" parent="1" source="nKTFBPFfTqCSFHR7X2-T-3" target="nKTFBPFfTqCSFHR7X2-T-4">
          <mxGeometry relative="1" as="geometry" />
        </mxCell>
        <mxCell id="nKTFBPFfTqCSFHR7X2-T-17" value="2.Recieve Events" style="edgeLabel;html=1;align=center;verticalAlign=middle;resizable=0;points=[];" vertex="1" connectable="0" parent="nKTFBPFfTqCSFHR7X2-T-16">
          <mxGeometry x="0.6956" y="1" relative="1" as="geometry">
            <mxPoint x="65" y="-1" as="offset" />
          </mxGeometry>
        </mxCell>
        <mxCell id="nKTFBPFfTqCSFHR7X2-T-3" value="Internet" style="image;aspect=fixed;perimeter=ellipsePerimeter;html=1;align=center;shadow=0;dashed=0;spacingTop=3;image=img/lib/active_directory/internet_cloud.svg;" vertex="1" parent="1">
          <mxGeometry x="400" y="180" width="50" height="31.5" as="geometry" />
        </mxCell>
        <mxCell id="nKTFBPFfTqCSFHR7X2-T-18" style="rounded=0;orthogonalLoop=1;jettySize=auto;html=1;shape=link;" edge="1" parent="1" source="nKTFBPFfTqCSFHR7X2-T-4" target="nKTFBPFfTqCSFHR7X2-T-8">
          <mxGeometry relative="1" as="geometry">
            <mxPoint x="160" y="60" as="targetPoint" />
          </mxGeometry>
        </mxCell>
        <mxCell id="nKTFBPFfTqCSFHR7X2-T-19" value="3.Send Alerts" style="edgeLabel;html=1;align=center;verticalAlign=middle;resizable=0;points=[];" vertex="1" connectable="0" parent="nKTFBPFfTqCSFHR7X2-T-18">
          <mxGeometry x="0.047" y="1" relative="1" as="geometry">
            <mxPoint as="offset" />
          </mxGeometry>
        </mxCell>
        <mxCell id="nKTFBPFfTqCSFHR7X2-T-30" style="edgeStyle=orthogonalEdgeStyle;rounded=0;orthogonalLoop=1;jettySize=auto;html=1;fillColor=#fff2cc;strokeColor=#d6b656;shape=link;" edge="1" parent="1" source="nKTFBPFfTqCSFHR7X2-T-4" target="nKTFBPFfTqCSFHR7X2-T-1">
          <mxGeometry relative="1" as="geometry">
            <mxPoint x="130" y="520" as="targetPoint" />
            <Array as="points">
              <mxPoint x="107" y="366" />
              <mxPoint x="131" y="366" />
              <mxPoint x="131" y="525" />
            </Array>
          </mxGeometry>
        </mxCell>
        <mxCell id="nKTFBPFfTqCSFHR7X2-T-31" value="8.Perform Responsive Action" style="edgeLabel;html=1;align=center;verticalAlign=middle;resizable=0;points=[];" vertex="1" connectable="0" parent="nKTFBPFfTqCSFHR7X2-T-30">
          <mxGeometry x="-0.3177" y="-1" relative="1" as="geometry">
            <mxPoint as="offset" />
          </mxGeometry>
        </mxCell>
        <mxCell id="nKTFBPFfTqCSFHR7X2-T-4" value="Wazuh Manager" style="image;aspect=fixed;perimeter=ellipsePerimeter;html=1;align=center;shadow=0;dashed=0;spacingTop=3;image=img/lib/active_directory/internet_cloud.svg;" vertex="1" parent="1">
          <mxGeometry x="80" y="177.25" width="54.37" height="34.25" as="geometry" />
        </mxCell>
        <mxCell id="nKTFBPFfTqCSFHR7X2-T-5" value="TheHive" style="image;aspect=fixed;perimeter=ellipsePerimeter;html=1;align=center;shadow=0;dashed=0;spacingTop=3;image=img/lib/active_directory/internet_cloud.svg;" vertex="1" parent="1">
          <mxGeometry x="590" y="180" width="50" height="31.5" as="geometry" />
        </mxCell>
        <mxCell id="nKTFBPFfTqCSFHR7X2-T-26" style="rounded=0;orthogonalLoop=1;jettySize=auto;html=1;entryX=0.75;entryY=1;entryDx=0;entryDy=0;shape=link;fillColor=#f8cecc;strokeColor=#b85450;" edge="1" parent="1" source="nKTFBPFfTqCSFHR7X2-T-7" target="nKTFBPFfTqCSFHR7X2-T-3">
          <mxGeometry relative="1" as="geometry">
            <mxPoint x="500" y="220" as="targetPoint" />
          </mxGeometry>
        </mxCell>
        <mxCell id="nKTFBPFfTqCSFHR7X2-T-27" value="7. Send And Recieve Email" style="edgeLabel;html=1;align=center;verticalAlign=middle;resizable=0;points=[];" vertex="1" connectable="0" parent="nKTFBPFfTqCSFHR7X2-T-26">
          <mxGeometry x="0.5243" y="1" relative="1" as="geometry">
            <mxPoint x="49" y="22" as="offset" />
          </mxGeometry>
        </mxCell>
        <mxCell id="nKTFBPFfTqCSFHR7X2-T-7" value="SOC Analyst" style="fontColor=#0066CC;verticalAlign=top;verticalLabelPosition=bottom;labelPosition=center;align=center;html=1;outlineConnect=0;fillColor=#CCCCCC;strokeColor=#6881B3;gradientColor=none;gradientDirection=north;strokeWidth=2;shape=mxgraph.networks.pc;" vertex="1" parent="1">
          <mxGeometry x="710" y="310" width="100" height="70" as="geometry" />
        </mxCell>
        <mxCell id="nKTFBPFfTqCSFHR7X2-T-20" style="edgeStyle=orthogonalEdgeStyle;rounded=0;orthogonalLoop=1;jettySize=auto;html=1;shape=link;fillColor=#d5e8d4;strokeColor=#82b366;" edge="1" parent="1" source="nKTFBPFfTqCSFHR7X2-T-8" target="nKTFBPFfTqCSFHR7X2-T-3">
          <mxGeometry relative="1" as="geometry" />
        </mxCell>
        <mxCell id="nKTFBPFfTqCSFHR7X2-T-21" value="4.Enrich IOCS" style="edgeLabel;html=1;align=center;verticalAlign=middle;resizable=0;points=[];" vertex="1" connectable="0" parent="nKTFBPFfTqCSFHR7X2-T-20">
          <mxGeometry x="-0.0391" y="-2" relative="1" as="geometry">
            <mxPoint as="offset" />
          </mxGeometry>
        </mxCell>
        <mxCell id="nKTFBPFfTqCSFHR7X2-T-22" style="edgeStyle=orthogonalEdgeStyle;rounded=0;orthogonalLoop=1;jettySize=auto;html=1;entryX=0.5;entryY=0;entryDx=0;entryDy=0;shape=link;" edge="1" parent="1" source="nKTFBPFfTqCSFHR7X2-T-8" target="nKTFBPFfTqCSFHR7X2-T-5">
          <mxGeometry relative="1" as="geometry">
            <mxPoint x="630" y="40" as="targetPoint" />
          </mxGeometry>
        </mxCell>
        <mxCell id="nKTFBPFfTqCSFHR7X2-T-23" value="5. Send Alerts" style="edgeLabel;html=1;align=center;verticalAlign=middle;resizable=0;points=[];" vertex="1" connectable="0" parent="nKTFBPFfTqCSFHR7X2-T-22">
          <mxGeometry x="0.3819" relative="1" as="geometry">
            <mxPoint as="offset" />
          </mxGeometry>
        </mxCell>
        <mxCell id="nKTFBPFfTqCSFHR7X2-T-24" style="edgeStyle=orthogonalEdgeStyle;rounded=0;orthogonalLoop=1;jettySize=auto;html=1;entryX=1;entryY=0.75;entryDx=0;entryDy=0;shape=link;fillColor=#f8cecc;strokeColor=#b85450;" edge="1" parent="1">
          <mxGeometry relative="1" as="geometry">
            <mxPoint x="455.2452887155065" y="192.1466808403418" as="targetPoint" />
            <mxPoint x="430.01999999999987" y="60" as="sourcePoint" />
            <Array as="points">
              <mxPoint x="430.4" y="110" />
              <mxPoint x="497.4" y="110" />
              <mxPoint x="497.4" y="192" />
            </Array>
          </mxGeometry>
        </mxCell>
        <mxCell id="nKTFBPFfTqCSFHR7X2-T-25" value="6.Send Email" style="edgeLabel;html=1;align=center;verticalAlign=middle;resizable=0;points=[];" vertex="1" connectable="0" parent="nKTFBPFfTqCSFHR7X2-T-24">
          <mxGeometry x="0.1454" y="-3" relative="1" as="geometry">
            <mxPoint as="offset" />
          </mxGeometry>
        </mxCell>
        <mxCell id="nKTFBPFfTqCSFHR7X2-T-28" style="edgeStyle=orthogonalEdgeStyle;rounded=0;orthogonalLoop=1;jettySize=auto;html=1;shape=link;fillColor=#fff2cc;strokeColor=#d6b656;" edge="1" parent="1" source="nKTFBPFfTqCSFHR7X2-T-8" target="nKTFBPFfTqCSFHR7X2-T-4">
          <mxGeometry relative="1" as="geometry">
            <mxPoint x="110" y="40" as="targetPoint" />
          </mxGeometry>
        </mxCell>
        <mxCell id="nKTFBPFfTqCSFHR7X2-T-29" value="8.Send Response Action" style="edgeLabel;html=1;align=center;verticalAlign=middle;resizable=0;points=[];" vertex="1" connectable="0" parent="nKTFBPFfTqCSFHR7X2-T-28">
          <mxGeometry x="0.3914" y="1" relative="1" as="geometry">
            <mxPoint as="offset" />
          </mxGeometry>
        </mxCell>
        <mxCell id="nKTFBPFfTqCSFHR7X2-T-8" value="Shuffle" style="image;aspect=fixed;perimeter=ellipsePerimeter;html=1;align=center;shadow=0;dashed=0;spacingTop=3;image=img/lib/active_directory/internet_cloud.svg;" vertex="1" parent="1">
          <mxGeometry x="375" y="10" width="95.24" height="60" as="geometry" />
        </mxCell>
      </root>
    </mxGraphModel>
  </diagram>
</mxfile>
